<svg xmlns="http://www.w3.org/2000/svg" width="399.998" height="122.638" xmlns:v="https://vecta.io/nano"><path d="M307.479 68.579c-.577 2.157-1.878 4.051-3.685 5.364a9.51 9.51 0 0 1-5.915 2.236H222.1c-1.844.117-3.618-.729-4.688-2.236-1.131-1.554-1.384-3.58-.669-5.364l16.85-60.867a10.21 10.21 0 0 1 3.573-5.364C238.841.904 240.979.11 243.191.112h75.671a5.69 5.69 0 0 1 4.911 2.125 6.13 6.13 0 0 1 .557 5.475l-2.006 7.258h-75.67l-12.837 46.239h75.78zm23.774 7.598h-15.178L337.167.222h15.067zM123.658.001h-15.067L94.757 49.82 34.043.112 12.951 76.29h15.18L41.74 26.812l60.714 49.7zm98.551 2.235c-1-1.449-2.57-2.125-4.8-2.125h-83.028l-4.131 14.858h75.555l-4.465 15.862h-75.447l-12.612 45.347h15.067l8.484-30.5h67.97a9.71 9.71 0 0 0 6.025-2.118 11.11 11.11 0 0 0 3.678-5.358l8.376-30.491a5.81 5.81 0 0 0-.672-5.475z" fill="#fff"/><path d="M380.801.111l19.2 38.089-40.181 38.084z" fill="#008b43"/><path d="M367.413.111l19.2 38.089-40.293 38.084z" fill="#f47921"/><g fill="#fff"><path d="M343.862 85.226a4.25 4.25 0 0 1 2.236-.676 4.91 4.91 0 0 1 2.118.564 6.01 6.01 0 0 1 1.228.557c.909.552 1.705 1.271 2.347 2.118l.111.223c.223.118.334.341.446.453h-9.712c-.111 0-.111-.111-.111-.223v-.112a1.93 1.93 0 0 1 0-1.121c.237-.725.707-1.352 1.337-1.783zm38.061 4.465l-1.01 3.908h-4.911l1.01-3.908zm-27.459-1.226l-.892-1.233a13.38 13.38 0 0 0-2.793-2.459 13.11 13.11 0 0 0-2.118-1.115 7.17 7.17 0 0 0-2.229-.334 7.36 7.36 0 0 0-3.573.892 4.27 4.27 0 0 0-2.015 2.57c-.111.441-.111.903 0 1.344h0c0 .111.111.223.111.334h-2.562l-.334 1.226h2.564l-3.01 10.944h1.784l3.016-10.943h11.716l-.78 2.793h-7.14c-.272.036-.537.111-.787.223-.334 0-.557.334-.669.669 0 .223 0 .557.78 1.567l.111.111c.676.78 1.121 1.115 1.456 1.115.332.028.66-.095.892-.334l.446-2.125h4.688l-1.895 6.924h1.783l2.9-10.943h6.367l-1 3.573h-1.9a1.02 1.02 0 0 0-.669.446c-.111.557.111 1.121.892 1.79.402.619 1.057 1.027 1.79 1.115a.92.92 0 0 0 .892-.557c0-.111.111-.223.111-.446l1.56-5.921h4.242l-2.9 10.943h1.79l2.9-10.943h5.245l-1 3.908h-1.241a1.21 1.21 0 0 0-.557.111c-.223 0-.446.223-.557.557s.223.9.892 1.679c.669.669 1.226 1.115 1.56 1.115.446 0 .669-.111.78-.334a.41.41 0 0 0 .111-.334l.446-1.56h4.8l-1.56 5.8h1.783l3.015-10.942h2.338l.223-1.226zm-80.25 1.226h3.353l-1.115 4.242h-4.238l.892-3.462a1.55 1.55 0 0 0-.45-1.672 3.19 3.19 0 0 0-1.895-.557 3.93 3.93 0 0 0-2.236.557 2.78 2.78 0 0 0-1.226 1.672c-.111.111 0 .446 0 .78v.118a.41.41 0 0 1 .111.334l.111.111h1.673l-.223-.221c0-.111 0-.111-.111-.223v-.9a2 2 0 0 1 .554-.779 1.56 1.56 0 0 1 1.013-.334 1.44 1.44 0 0 1 .887.223 1.41 1.41 0 0 1 .111.669l-1 3.685h-1.677a1.21 1.21 0 0 0-.557.111c-.182.157-.333.346-.446.557 0 .23 0 .564 1.115 1.679 1.003 1.114 1.454 1.337 1.678 1.337.265.007.516-.118.669-.334.111-.111.111-.334.223-.446l.334-1.56h4.35l-1.452 5.135c-.544.044-1.075.196-1.56.446-.223.111-.557.341-1 .564l-.111.111 1.115 1.115.111-.111c.223-.223.446-.446.557-.446a2.14 2.14 0 0 1 1.337-.446 1.37 1.37 0 0 1 1.01.334c.239.23.325.576.223.892a2.16 2.16 0 0 1-1.121 1.337c-.622.311-1.311.467-2.006.453a4.8 4.8 0 0 1-3.243-1.123c-.387-.362-.723-.774-1-1.226l-.111-.111-1.449 1.226.111.111a12.29 12.29 0 0 0 1.446 1.233 7.42 7.42 0 0 0 4.131 1.115c1.131.047 2.253-.223 3.239-.78a3.3 3.3 0 0 0 1.783-2.125c.203-.667.032-1.392-.446-1.9-.342-.328-.765-.559-1.226-.669l2.898-10.722h6.364l-1.01 3.573h-1.78c-.33-.042-.649.14-.78.446-.111.557.223 1.121.892 1.79a2.7 2.7 0 0 0 1.778 1.113c.394.049.768-.183.9-.557.111-.111.111-.223.111-.446l1.564-5.919h4.242l-2.9 10.943h1.783l2.9-10.943h12.051l-.669 2.347h-5.8c-.795-.018-1.575.216-2.229.669a2.63 2.63 0 0 0-1.226 1.783 4.75 4.75 0 0 0 1.115 4.138 13.36 13.36 0 0 0 1.78 1.785v.111l1.449-1-.111-.111a9.91 9.91 0 0 1-1.56-1.572 3.96 3.96 0 0 1-1-3.462c.119-.363.354-.676.669-.892a3.08 3.08 0 0 1 1.56-.223h5.022l-1.895 7.37h1.672l3.013-10.943h4.242l-3.016 10.943h1.783l2.905-10.943h11.828l-.783 2.793h-7.14a2.07 2.07 0 0 0-.78.223c-.334 0-.557.334-.676.669 0 .223 0 .557.9 1.679.669.78 1.115 1.115 1.449 1.115a.87.87 0 0 0 .78-.334l.559-2.123h4.577l-1.783 6.924h1.672l3.015-10.946h2.341l.334-1.226h-54.911zm-41.736-.002l-.557 2.347h-3.8c-.853-.042-1.701.151-2.452.557-.112.111-.223.111-.446.223a6.8 6.8 0 0 0-.9.892l-3.455-4.019zm-8.819 5.252h0l-.111.111v.334c-.111.111-.334.111-.446.223a6.18 6.18 0 0 1-1.895.334h-.114a2.21 2.21 0 0 1-1.567-.446 1.4 1.4 0 0 1-.334-1.344l.9-3.239zm11.271-9.717a2.09 2.09 0 0 1 1.456-.453 4 4 0 0 1 1.226.23 2.75 2.75 0 0 1 1.672 1.672 5.9 5.9 0 0 1 .446 1.79h-5.468c0-.111-.111-.223-.111-.334v-.118c-.202-.456-.241-.968-.111-1.449a2.84 2.84 0 0 1 .89-1.338zm14.4 5.134c0-.223-.111-.334-.223-.669h4.465l-1.449 5.587c-.446.446-.78.669-1 .892-.88.514-1.881.783-2.9.78h0a2.69 2.69 0 0 1-2.452-1 2.23 2.23 0 0 1-.223-1c.669-.223 1.226-.341 1.672-.453a3.9 3.9 0 0 0 2.34-2.452 2.95 2.95 0 0 0-.232-1.685zm-8.589-4.242a3.73 3.73 0 0 0-2.793-2.347 4.16 4.16 0 0 0-1.337-.223 5.39 5.39 0 0 0-2.682.78 3.48 3.48 0 0 0-1.56 2.125 3.83 3.83 0 0 0 .111 1.56c.111.23.111.341.223.453h-33.034l-.341 1.226h7.147l-.669 2.793a2.06 2.06 0 0 1-.78 1 2.83 2.83 0 0 1-1.456.334 2.16 2.16 0 0 1-.892-.111 3.3 3.3 0 0 1-.446-.334l-.78-1.783-1.56.892.111.111a10.52 10.52 0 0 0 .334 1l1.449 2.682 1.56 2.347c.446.669 1 1.226 1.567 2.006l.111.111 1.56-1-.111-.111c-.223-.223-.334-.446-.557-.557l-.334-.334a6.69 6.69 0 0 0-.669-.9l-.676-.892-1.115-2.006a4.56 4.56 0 0 0 2.347-.341 4.45 4.45 0 0 0 1.449-.78c.231-.386.418-.798.557-1.226l.78-2.9h4.688l-3.009 10.943h1.783l2.9-10.943h4.019l-1.226 4.354c-.269.836.049 1.749.78 2.236a3.56 3.56 0 0 0 2.682.892 4.06 4.06 0 0 0 1.56-.223l1.115-.334a2.84 2.84 0 0 0 .669 1.567l.334.334h0c.671.677 1.526 1.142 2.459 1.337l-6.025 4.019h2.675l4.354-3.462 2.459 3.462h2.006l-3.016-3.908a6.59 6.59 0 0 0 2.125-.557 8.18 8.18 0 0 0 2.452-1.567l.223-.111-1.337-.78-.111.111a5.53 5.53 0 0 1-4.131 1.679c-1.045.031-2.055-.376-2.786-1.122a2.69 2.69 0 0 1-.78-2.006c.111-.111.111-.223.111-.446a.39.39 0 0 1 .111-.223 3.12 3.12 0 0 1 1-1.121 3.37 3.37 0 0 1 1.783-.557h5.134l1-3.573h5.245l-3.008 10.941h1.783l2.9-10.943h5.914c.135.232.284.455.446.669a2.69 2.69 0 0 1 .223 1.567c-.203.592-.594 1.101-1.115 1.449a4.26 4.26 0 0 1-1.79.334h-.334c-.111 0-.223-.111-.334-.111h-.334v.111c-.331 1.035-.122 2.168.557 3.016a4.31 4.31 0 0 0 3.573 1.456h0a8.8 8.8 0 0 0 2.9-.564c.211-.134.435-.245.669-.334l-.892 3.351h1.783l2.9-10.943h2.34l.334-1.226h-16.723a6.01 6.01 0 0 0-.554-2.349zm-73.219-.892a1.89 1.89 0 0 1 1.449-.453c.421.011.837.089 1.233.23a3.04 3.04 0 0 1 1.672 1.672 10.06 10.06 0 0 1 .446 1.79h-5.468c0-.111-.111-.223-.111-.453-.202-.456-.241-.968-.111-1.449a2.84 2.84 0 0 1 .89-1.337zm14.4 5.134c0-.223-.111-.334-.223-.669h4.465l-1.449 5.587a6.71 6.71 0 0 1-1.121.892 5.03 5.03 0 0 1-2.786.78h-.111c-.903.097-1.791-.282-2.347-1a3.24 3.24 0 0 1-.223-1c.669-.223 1.226-.341 1.679-.453 1.113-.418 1.975-1.321 2.341-2.452.092-.572.013-1.158-.226-1.685zm-8.6-4.242c-.486-1.193-1.528-2.071-2.786-2.347a4.17 4.17 0 0 0-1.344-.223 5.05 5.05 0 0 0-2.675.78 3.38 3.38 0 0 0-1.56 2.125c-.127.519-.088 1.064.111 1.56 0 .23.111.341.111.453h-32.924l-.334 1.226h3.239l-1.115 4.242h-4.242l.892-3.462a1.38 1.38 0 0 0-.446-1.672 2.75 2.75 0 0 0-1.9-.557 3.57 3.57 0 0 0-2.118.557c-.669.309-1.132.941-1.226 1.672a.94.94 0 0 0 0 .78.68.68 0 0 0 .111.453v.111h1.672l-.111-.223c-.111-.111-.111-.111-.111-.223a1.24 1.24 0 0 1 0-.9 1.29 1.29 0 0 1 .557-.78 1.27 1.27 0 0 1 .892-.334 1.44 1.44 0 0 1 .892.223.52.52 0 0 1 .118.669l-1.01 3.685h-1.56a1 1 0 0 0-.557.111c-.223.223-.446.334-.446.557-.111.118-.111.453 1 1.679 1 1.115 1.449 1.337 1.672 1.337a1.2 1.2 0 0 0 .78-.334c0-.111.118-.334.118-.446l.446-1.56h4.235l-1.449 5.357h1.79l2.9-10.943h4.242l-2.9 10.943h1.679l3.009-10.943h8.819l-.669 2.793c-.119.423-.399.782-.78 1a2.54 2.54 0 0 1-1.456.334 2.45 2.45 0 0 1-.892-.111 3.3 3.3 0 0 1-.446-.334l-.78-1.783-1.56.892.111.111a3.96 3.96 0 0 0 .446 1 29.79 29.79 0 0 0 1.337 2.682c.334.669.892 1.337 1.56 2.347l1.567 2.006.111.111 1.56-1-.223-.223c-.334-.334-.557-.669-.669-.78l-.334-.334a8.9 8.9 0 0 1-1-1.456l-1.233-2.006a4.55 4.55 0 0 0 2.347-.341 4.45 4.45 0 0 0 1.449-.78 2.03 2.03 0 0 0 .557-1.226l.892-2.9h12.392l-.669 2.347h-5.8c-.799-.036-1.588.2-2.236.669a2.53 2.53 0 0 0-1.226 1.783c-.446 1.233 0 2.682 1.115 4.138a11.8 11.8 0 0 0 1.672 1.783l.111.111 1.456-1-.223-.111a8.69 8.69 0 0 1-1.456-1.567 3.96 3.96 0 0 1-1-3.462c.119-.363.354-.676.669-.892a3.11 3.11 0 0 1 1.567-.223h5.008l-2.013 7.37h1.79l3.009-10.943h4.131l-2.9 10.943h1.79l2.9-10.943h5.809c.197.213.383.436.557.669a2.59 2.59 0 0 1 .223 1.567 2.83 2.83 0 0 1-1.122 1.449c-.563.239-1.172.352-1.783.334h-.446c-.086-.008-.165-.048-.223-.111h-.334v.111c-.331 1.035-.122 2.168.557 3.016a4.2 4.2 0 0 0 3.462 1.456h.111a10.93 10.93 0 0 0 2.786-.564c.223-.111.557-.223.78-.334l-.892 3.351h1.79l2.9-10.943h2.347l.334-1.226h-16.749a9 9 0 0 0-.557-2.353zM0 122.082l3.573-12.845 5.692 7.593c.223.223.334.446.557.676a2.8 2.8 0 0 0 .446.78l2.341-8.491h1.9l-3.573 12.733-5.914-7.593a2.33 2.33 0 0 0-.445-.668c-.13-.254-.242-.517-.335-.787l-2.347 8.602z"/><use href="#B"/><use href="#C"/><path d="M32.812 122.082l3.462-12.288h2.013l-3.462 12.288zm16.409-6.145a4.91 4.91 0 0 0 .223-1.783c-.116-.509-.304-.999-.557-1.456a2.74 2.74 0 0 0-1.233-1 3.56 3.56 0 0 0-1.561-.334 5.66 5.66 0 0 0-1.895.331 6.67 6.67 0 0 0-1.679 1c-.539.427-1.025.917-1.448 1.459a6.22 6.22 0 0 0-.78 1.783 5.23 5.23 0 0 0-.223 1.79 5.6 5.6 0 0 0 .557 1.449 3.49 3.49 0 0 0 1.226 1c.526.24 1.101.354 1.679.334a5.54 5.54 0 0 0 1.783-.334 6.65 6.65 0 0 0 1.672-1 6.12 6.12 0 0 0 1.456-1.449 5.21 5.21 0 0 0 .78-1.79zm2.118 0a9.8 9.8 0 0 1-1.115 2.459 7.59 7.59 0 0 1-2.125 2.117 7.8 7.8 0 0 1-2.452 1.456 7.5 7.5 0 0 1-2.682.446 6 6 0 0 1-2.452-.446 4.13 4.13 0 0 1-1.671-1.456 4.66 4.66 0 0 1-.9-2.006 6.76 6.76 0 0 1 .23-2.57 7.34 7.34 0 0 1 1.227-2.459c.516-.835 1.199-1.555 2.006-2.114.726-.602 1.561-1.059 2.459-1.348a7.66 7.66 0 0 1 2.675-.557c.849.013 1.687.203 2.459.557a3.85 3.85 0 0 1 1.672 1.348 5.07 5.07 0 0 1 .892 2.118 6.33 6.33 0 0 1-.223 2.459zm.224 6.145l3.573-12.845 5.8 7.593c.11.248.261.477.446.676.111.223.334.557.446.78l2.347-8.491h1.898l-3.574 12.733-5.914-7.593a2.33 2.33 0 0 0-.445-.668c-.13-.254-.242-.517-.335-.787l-2.342 8.602zm18.196-4.807h3.455l-.557-2.786v-1.456c-.167.249-.316.51-.446.78-.111.223-.334.453-.446.676zm4.134 4.806l-.456-3.132h-4.904l-2.347 3.132H64.18l9.487-12.845 2.341 12.845zm3.673.001l3.462-12.288h2.006l-3.009 10.5h4.579l-.557 1.79zm17.638-7.148h.557a5.74 5.74 0 0 0 2.341-.334c.437-.34.752-.811.9-1.344.111-.669.111-1.115-.223-1.337-.343-.336-1.012-.447-2.126-.447h-.446zm-.557 1.672l-1.568 5.475h-1.894l3.462-12.288h3.009a9.73 9.73 0 0 1 2.013.111 2.24 2.24 0 0 1 .892.446 2.22 2.22 0 0 1 .668 1.233 7.9 7.9 0 0 1-.111 1.56 11.37 11.37 0 0 1-.78 1.679c-.351.431-.764.807-1.226 1.115a6.47 6.47 0 0 1-1.344.446 8.3 8.3 0 0 1-2.006.223h-1.115zm7.696.669h3.462l-.446-2.786a1.44 1.44 0 0 1-.111-.676v-.78a4.82 4.82 0 0 1-.446.78l-.334.676zm4.242 4.806l-.557-3.132h-4.911l-2.229 3.132h-2.124l9.487-12.845 2.452 12.845zm3.239.001l1.56-5.587-2.229-6.7h2.007l1.449 4.13c0 .111.111.23.111.453a1 1 0 0 1 .111.557c.111-.223.334-.334.446-.557.111-.111.223-.341.446-.453l3.8-4.131h2.013l-6.144 6.7-1.563 5.588zm18.3-6.032a2.51 2.51 0 0 1 .111-.78c0-.446.111-.669.111-.892-.111.223-.334.557-.446.78l-.557.892-5.134 6.59-1.337-6.7c0-.334-.111-.557-.111-.892v-.671a5.53 5.53 0 0 0-.334.78 6.57 6.57 0 0 1-.446.893l-3.016 6.032h-1.783l6.471-12.846 1.449 7.814a4.93 4.93 0 0 1 .111.564c0 .334.111.669.111 1.115l.9-1.337c.111-.23.223-.341.334-.341l5.691-7.816-.561 12.846h-1.9zm3.462 6.032l3.462-12.288h6.806l-.446 1.679h-4.911l-.78 3.128h4.8l-.447 1.672h-4.911l-1.114 4.015h4.9l-.446 1.79zm9.488 0l3.573-12.845 5.8 7.593c.11.248.261.477.446.676a2.8 2.8 0 0 0 .446.78l2.341-8.491h1.9l-3.57 12.733-5.914-7.593a2.33 2.33 0 0 0-.445-.668c-.13-.254-.242-.517-.335-.787l-2.347 8.602zm21.203-10.609l-3.016 10.609h-2.007l3.017-10.609h-3.351l.557-1.679h8.484l-.445 1.679zm2.123 8.15l1.783-.78c-.004.503.197.986.557 1.337a2.11 2.11 0 0 0 1.337.453c.572 0 1.126-.199 1.567-.564a2.22 2.22 0 0 0 .892-1.337c.224-.669-.222-1.338-1.236-1.902-.111-.111-.223-.111-.334-.223a5.64 5.64 0 0 1-2.225-1.783 2.48 2.48 0 0 1-.112-2.013 4.42 4.42 0 0 1 1.671-2.348 4.91 4.91 0 0 1 3.016-1c.744-.017 1.478.176 2.118.557.491.371.78.951.78 1.567l-1.782.776a1.76 1.76 0 0 0-.557-.892 2.1 2.1 0 0 0-.892-.223 3.09 3.09 0 0 0-1.449.334 2.31 2.31 0 0 0-.787 1.229c-.223.669.334 1.344 1.567 2.013 0 .111.111.111.223.111a5.28 5.28 0 0 1 2.006 1.672 2.48 2.48 0 0 1 .111 2.013c-.279 1.127-.95 2.117-1.894 2.793a5.33 5.33 0 0 1-3.239 1 3.66 3.66 0 0 1-2.341-.665 2.79 2.79 0 0 1-.78-2.125zm26.787-6.813c-.348-.521-.857-.912-1.449-1.115a5.27 5.27 0 0 0-1.9-.334 5.67 5.67 0 0 0-3.687 1.226 6.67 6.67 0 0 0-2.117 3.35c-.473 1.1-.347 2.366.334 3.351a2.85 2.85 0 0 0 2.682 1.226 7.73 7.73 0 0 0 2.229-.335 13.76 13.76 0 0 0 2.229-1.114l-.669 2.236a15.79 15.79 0 0 1-2.006.892c-.698.135-1.407.21-2.118.223a5.68 5.68 0 0 1-2.459-.446c-.698-.287-1.312-.747-1.783-1.337-.421-.639-.688-1.366-.78-2.125a6.91 6.91 0 0 1 .223-2.57 7.86 7.86 0 0 1 1.226-2.57 8.57 8.57 0 0 1 2.006-2.007 6.76 6.76 0 0 1 2.459-1.456 11.19 11.19 0 0 1 2.675-.446c.686.002 1.367.115 2.017.334a12.18 12.18 0 0 1 1.668.892zm12.161 3.127a4.91 4.91 0 0 0 .223-1.783c-.117-.509-.306-.999-.56-1.456-.301-.447-.727-.795-1.226-1a3.56 3.56 0 0 0-1.557-.334 5.67 5.67 0 0 0-1.9.334 6.65 6.65 0 0 0-1.672 1c-.54.426-1.027.915-1.451 1.456a6.24 6.24 0 0 0-.787 1.783 5.23 5.23 0 0 0-.223 1.79 5.37 5.37 0 0 0 .564 1.449 3.49 3.49 0 0 0 1.226 1 3.72 3.72 0 0 0 1.672.334c.609-.013 1.211-.126 1.783-.334.606-.248 1.172-.585 1.679-1a8.91 8.91 0 0 0 1.449-1.449 5.21 5.21 0 0 0 .78-1.79zm2.125 0a7.17 7.17 0 0 1-1.233 2.459 6.03 6.03 0 0 1-2.006 2.117 7.8 7.8 0 0 1-2.452 1.456 7.54 7.54 0 0 1-2.682.446 6 6 0 0 1-2.452-.446 4.1 4.1 0 0 1-1.679-1.456c-.453-.588-.759-1.276-.892-2.006a6.91 6.91 0 0 1 .223-2.57 7.34 7.34 0 0 1 1.226-2.459c.519-.835 1.205-1.555 2.014-2.114a7.45 7.45 0 0 1 2.451-1.348 7.7 7.7 0 0 1 2.682-.557 6.08 6.08 0 0 1 2.452.557 3.92 3.92 0 0 1 1.679 1.348 5.07 5.07 0 0 1 .892 2.118 6.33 6.33 0 0 1-.223 2.459zm4.576-.892h.334a5.13 5.13 0 0 0 2.229-.334 2.86 2.86 0 0 0 .892-1.344 1.5 1.5 0 0 0-.111-1.449 2.95 2.95 0 0 0-2.007-.446h-.334zm-.564 1.56l-1.561 5.476h-1.894l3.455-12.288h2.793c.634-.031 1.269.005 1.895.107a2.18 2.18 0 0 1 1.01.557 2.15 2.15 0 0 1 .553 1.126 3.83 3.83 0 0 1-.111 1.56 5.8 5.8 0 0 1-1.341 2.348c-.696.575-1.552.924-2.452 1l2.675 5.587h-2.229l-2.57-5.472zm10.609-1.671h.446a5.74 5.74 0 0 0 2.341-.334 1.74 1.74 0 0 0 .892-1.344 1.28 1.28 0 0 0-.113-1.338 3.32 3.32 0 0 0-2.117-.446h-.562zm-.564 1.672l-1.561 5.475h-1.894l3.455-12.288h3.016a7.97 7.97 0 0 1 1.895.111 2.1 2.1 0 0 1 1.01.446c.316.339.511.772.557 1.233.127.519.088 1.064-.111 1.56a5.68 5.68 0 0 1-.78 1.679 3.95 3.95 0 0 1-1.236 1.115c-.381.215-.796.366-1.226.446a8.3 8.3 0 0 1-2.006.223h-1.119zm17.972-.669a3.25 3.25 0 0 0 .111-1.783 2.35 2.35 0 0 0-.557-1.456 2.44 2.44 0 0 0-1.115-1c-.526-.239-1.1-.353-1.678-.334a5.05 5.05 0 0 0-1.784.331 5.65 5.65 0 0 0-1.783 1c-.535.399-.992.894-1.347 1.459a6.65 6.65 0 0 0-.892 1.783c-.144.585-.18 1.192-.108 1.79a3.28 3.28 0 0 0 .557 1.449 2.71 2.71 0 0 0 1.233 1 3.56 3.56 0 0 0 1.56.334 5.66 5.66 0 0 0 1.895-.334 6.81 6.81 0 0 0 1.679-1 8.91 8.91 0 0 0 1.448-1.449 5.21 5.21 0 0 0 .781-1.79zm2.118 0c-.249.89-.665 1.725-1.227 2.459a9.06 9.06 0 0 1-2.006 2.117 8.33 8.33 0 0 1-2.57 1.456 6.91 6.91 0 0 1-2.563.446 6.03 6.03 0 0 1-2.459-.446 4.13 4.13 0 0 1-1.672-1.456 3.63 3.63 0 0 1-.892-2.006 5.18 5.18 0 0 1 .218-2.57 7.05 7.05 0 0 1 1.119-2.459c.58-.784 1.254-1.494 2.007-2.114a8.05 8.05 0 0 1 2.574-1.348 7.66 7.66 0 0 1 2.675-.557 5.19 5.19 0 0 1 2.347.557 3.6 3.6 0 0 1 1.778 1.348 5.07 5.07 0 0 1 .892 2.118 6.33 6.33 0 0 1-.222 2.455zm3.795-.892h.446a5.52 5.52 0 0 0 2.236-.334 4.04 4.04 0 0 0 .892-1.344c.111-.667.111-1.227-.224-1.449-.334-.335-.888-.446-1.901-.446h-.446zm-.558 1.561l-1.448 5.475h-1.9l3.46-12.288h2.793a7.42 7.42 0 0 1 1.783.107 2.16 2.16 0 0 1 1 .557 1.56 1.56 0 0 1 .561 1.126c.127.519.088 1.064-.111 1.56a4.09 4.09 0 0 1-3.679 3.348l2.675 5.587h-2.229l-2.57-5.472zm10.936.669h3.462l-.557-2.786v-1.456a4.82 4.82 0 0 1-.446.78 2.36 2.36 0 0 1-.446.676zm4.242 4.806l-.557-3.132h-4.911l-2.229 3.132h-2.124l9.487-12.845 2.452 12.845z"/><use href="#C" x="235.602"/><path d="M268.415 122.082l3.462-12.288h2.006l-3.456 12.288zm16.516-6.145c.148-.582.186-1.187.112-1.783a3.28 3.28 0 0 0-.557-1.456 3.16 3.16 0 0 0-1.115-1 4.47 4.47 0 0 0-1.672-.334 4.68 4.68 0 0 0-1.79.331 5.65 5.65 0 0 0-1.783 1c-.539.427-1.025.917-1.449 1.459a12.44 12.44 0 0 0-.78 1.783 3.33 3.33 0 0 0-.111 1.79c.016.532.212 1.043.557 1.449a2.44 2.44 0 0 0 1.115 1 4.07 4.07 0 0 0 1.672.334c.611-.003 1.217-.115 1.789-.331a5.65 5.65 0 0 0 1.783-1 5.46 5.46 0 0 0 1.338-1.452c.405-.537.707-1.144.891-1.79zm2.013 0a7 7 0 0 1-1.114 2.459 9.25 9.25 0 0 1-2.011 2.117 9.8 9.8 0 0 1-2.563 1.456 7.54 7.54 0 0 1-2.682.446 5.17 5.17 0 0 1-2.341-.446 3.82 3.82 0 0 1-1.79-1.456 4.64 4.64 0 0 1-.894-2.006 6.91 6.91 0 0 1 .223-2.57 7.34 7.34 0 0 1 1.226-2.459 12.24 12.24 0 0 1 2.013-2.114 7.95 7.95 0 0 1 2.564-1.348c.815-.343 1.686-.532 2.57-.557a5.67 5.67 0 0 1 2.452.557c.691.307 1.304.768 1.79 1.348a4.88 4.88 0 0 1 .78 2.118 4.75 4.75 0 0 1-.222 2.455zm.001 6.145l3.455-12.845 5.81 7.593c.111.223.334.446.446.676s.334.557.446.78l2.343-8.491h1.9l-3.575 12.733-5.8-7.593a2.33 2.33 0 0 1-.448-.668 1.87 1.87 0 0 1-.446-.787l-2.348 8.602zm29.909-6.145c.148-.582.186-1.187.112-1.783a3.28 3.28 0 0 0-.557-1.456 3.12 3.12 0 0 0-1.121-1 4.47 4.47 0 0 0-1.673-.334 5.05 5.05 0 0 0-1.783.331c-.652.222-1.259.561-1.79 1a5.38 5.38 0 0 0-1.338 1.459 6.65 6.65 0 0 0-.891 1.783c-.145.585-.182 1.192-.111 1.79.016.532.212 1.043.557 1.449a2.44 2.44 0 0 0 1.115 1 4.08 4.08 0 0 0 1.679.334 5.05 5.05 0 0 0 1.783-.334 5.65 5.65 0 0 0 1.783-1 5.6 5.6 0 0 0 1.344-1.449c.405-.537.707-1.144.891-1.79zm2.006 0a7 7 0 0 1-1.114 2.459 9.06 9.06 0 0 1-2.006 2.117 8.41 8.41 0 0 1-2.57 1.456 7.5 7.5 0 0 1-2.682.446 5.17 5.17 0 0 1-2.341-.446 3.8 3.8 0 0 1-1.783-1.456c-.419-.596-.689-1.284-.787-2.006a6.62 6.62 0 0 1 .116-2.57 10.27 10.27 0 0 1 1.228-2.459 11.92 11.92 0 0 1 2.006-2.114 7.93 7.93 0 0 1 2.566-1.348 7.66 7.66 0 0 1 2.68-.557 5.6 5.6 0 0 1 2.347.557 4.95 4.95 0 0 1 1.783 1.348 4.88 4.88 0 0 1 .78 2.118 4.75 4.75 0 0 1-.222 2.455zm.001 6.145l3.351-12.288h6.917l-.446 1.679h-4.911l-.892 3.128h4.911l-.446 1.672h-4.911l-1.56 5.809zm14.288 0l3.351-12.288h2.006l-3.351 12.288zm3.795 0l3.566-12.845 5.7 7.593c.223.223.334.446.557.676a2.8 2.8 0 0 0 .446.78l2.341-8.491h1.9l-3.574 12.733-5.914-7.593c-.111-.223-.334-.446-.446-.669-.13-.254-.242-.516-.334-.786l-2.347 8.602zm15.736-1.79h1.672a10.39 10.39 0 0 0 2.125-.223 6.82 6.82 0 0 0 1.337-.557 4.86 4.86 0 0 0 1.449-1.56c.473-.579.781-1.274.892-2.013a4.78 4.78 0 0 0 .222-2.125c-.016-.532-.212-1.043-.557-1.449a3.71 3.71 0 0 0-1.115-.669 11.55 11.55 0 0 0-2.229-.111h-1.455zm-2.57 1.79l3.462-12.288h2.681a24.07 24.07 0 0 1 3.678.223 4.38 4.38 0 0 1 1.567.9 3.45 3.45 0 0 1 1 2.118 5.33 5.33 0 0 1-.223 2.9c-.287 1.034-.741 2.013-1.344 2.9a6.84 6.84 0 0 1-2.226 2.132 7.92 7.92 0 0 1-2.006.892 23.81 23.81 0 0 1-3.354.223h-3.235zm11.724 0l3.455-12.288h2.013l-3.462 12.288z"/><use href="#B" x="352.561"/></g><defs ><path id="B" d="M18.197 117.275h3.454l-.556-2.786v-1.456c-.167.249-.316.51-.446.78a2.36 2.36 0 0 0-.446.676zm4.124 4.806l-.446-3.132h-4.911l-2.34 3.132h-2.125l9.6-12.845 2.347 12.845z"/><path id="C" d="M30.584 111.473l-2.905 10.609h-2.006l2.9-10.609h-3.23l.446-1.679h8.6l-.566 1.679z"/></defs></svg>