<svg xmlns="http://www.w3.org/2000/svg" width="400" height="89.053" viewBox="0 0 400 89.053">
  <g id="Bosch_-_white" data-name="Bosch - white" transform="translate(0 -0.18)">
    <g id="Group_30244" data-name="Group 30244" transform="translate(133.395 13.575)">
      <path id="Path_106673" data-name="Path 106673" d="M182.091,44.556a12.721,12.721,0,0,0,8.129-12.009c0-10.808-7.667-16.166-18.2-16.166H144.4V75.151h30.023c9.238,0,18.291-6.467,18.291-16.351C192.714,47.05,182.091,44.666,182.091,44.556ZM158.811,28.574h10.716a5.229,5.229,0,0,1,5.543,4.905v.637a5.478,5.478,0,0,1-5.543,5.367H158.719Zm10.808,34.273H158.9V51.3h10.439c5.266,0,7.76,2.309,7.76,5.727C177.1,61.295,173.961,62.847,169.619,62.847Z" transform="translate(-144.4 -14.81)" fill="#fff" fill-rule="evenodd"/>
      <path id="Path_106674" data-name="Path 106674" d="M228.875,14.78c-17,0-26.975,13.58-26.975,30.762S211.877,76.3,228.875,76.3s26.975-13.487,26.975-30.762S245.965,14.78,228.875,14.78Zm0,47.483c-8.314,0-12.471-7.483-12.471-16.721s4.157-16.628,12.471-16.628,12.564,7.483,12.564,16.628C241.438,54.872,237.189,62.263,228.875,62.263Z" transform="translate(-148.782 -14.688)" fill="#fff" fill-rule="evenodd"/>
      <path id="Path_106675" data-name="Path 106675" d="M291.83,39.345l-2.032-.462c-4.988-1.016-8.961-2.309-8.961-5.912,0-3.88,3.788-5.45,7.113-5.45a16.5,16.5,0,0,1,12.009,5.45l9.146-9.053c-4.157-4.711-10.9-9.238-21.432-9.238-12.379,0-21.8,6.928-21.8,18.476,0,10.531,7.575,15.7,16.813,17.644l2.032.462c7.667,1.57,10.531,2.771,10.531,6.467,0,3.51-3.141,5.82-7.945,5.82a18.423,18.423,0,0,1-14.873-7.575l-9.33,9.238C268.273,71.4,274.832,76.2,287.488,76.2c10.993,0,22.725-6.282,22.725-19.122C310.4,43.687,300.236,41.1,291.83,39.345Z" transform="translate(-153.446 -14.68)" fill="#fff" fill-rule="evenodd"/>
      <path id="Path_106676" data-name="Path 106676" d="M347.4,62.27c-6.466,0-13.21-5.358-13.21-17.09,0-10.439,6.282-16.259,12.841-16.259,5.173,0,8.222,2.4,10.624,6.559l11.824-7.852c-5.912-8.961-12.933-12.748-22.633-12.748-17.737,0-27.344,13.764-27.344,30.393,0,17.46,10.624,31.132,27.159,31.132,11.64,0,17.182-4.065,23.187-12.748L357.93,55.638C355.528,59.5,352.941,62.27,347.4,62.27Z" transform="translate(-157.745 -14.695)" fill="#fff" fill-rule="evenodd"/>
      <path id="Path_106677" data-name="Path 106677" d="M413.556,16.38V38H395.727V16.38H380.3V75.133h15.427V51.946h17.829V75.133h15.427V16.38Z" transform="translate(-162.379 -14.81)" fill="#fff" fill-rule="evenodd"/>
    </g>
    <g id="Group_30245" data-name="Group 30245" transform="translate(0 0.18)">
      <path id="Path_106678" data-name="Path 106678" d="M44.527.18A44.527,44.527,0,1,0,89.053,44.707,44.527,44.527,0,0,0,44.527.18Zm0,84.9a40.4,40.4,0,1,1,.009,0Z" transform="translate(0 -0.18)" fill="#fff"/>
      <path id="Path_106679" data-name="Path 106679" d="M63.832,18.28H60.783V33.522H30.206V18.28H27.065a33.312,33.312,0,0,0,0,55.612h3.141V58.668H60.783V73.91h3.049a33.3,33.3,0,0,0,0-55.612ZM25.957,67.906a29.182,29.182,0,0,1-2.43-41.2,30.033,30.033,0,0,1,2.43-2.42ZM60.783,54.419H30.206V37.68H60.783ZM64.94,67.813V58.576h0V33.522h0V24.285a29.238,29.238,0,0,1,2.208,41.3A31.115,31.115,0,0,1,64.94,67.8Z" transform="translate(-0.922 -1.559)" fill="#fff"/>
    </g>
  </g>
</svg>
